<svg width="418" height="384" viewBox="0 0 418 384" fill="none" xmlns="http://www.w3.org/2000/svg">
<rect width="418" height="384" fill="white"/>
<path d="M293.348 286.897C290.732 286.897 288.648 284.814 288.648 282.246C288.648 279.63 290.732 277.498 293.348 277.498C295.916 277.498 297.999 279.63 297.999 282.246C297.999 284.814 295.916 286.897 293.348 286.897Z" fill="#FFAAB7"/>
<path d="M283.81 286.558C279.789 286.558 275.67 284.765 275.67 278.854V268.777H272.715C272.279 268.777 271.988 268.438 271.988 268.002V263.302C271.988 262.866 272.279 262.527 272.715 262.527H275.67V257.004C275.67 256.568 276.01 256.229 276.446 256.229H283.132C283.568 256.229 283.907 256.568 283.907 257.004V262.527H287.444C287.88 262.527 288.219 262.866 288.219 263.302V268.002C288.219 268.438 287.88 268.777 287.444 268.777H283.907V277.982C283.907 279.145 284.779 279.823 285.942 279.823C286.378 279.823 286.765 279.872 287.444 279.823C287.831 279.775 288.267 280.017 288.267 280.502V284.959C288.267 286.219 285.554 286.558 283.81 286.558Z" fill="#FFAAB7"/>
<path d="M263.026 286.848C255.71 286.848 250.381 281.373 250.381 274.251C250.381 267.275 255.613 261.945 262.784 261.945C266.805 261.945 270.051 263.689 272.086 266.354C272.377 266.693 272.28 267.129 271.989 267.42L268.259 271.005C267.919 271.344 267.29 271.393 266.95 271.005C265.739 269.891 264.576 269.406 263.171 269.406C259.974 269.406 258.181 271.635 258.181 274.251C258.181 276.868 259.974 279.387 263.317 279.387C264.625 279.387 265.788 278.903 266.999 277.74C267.338 277.401 267.968 277.449 268.307 277.788L272.038 281.373C272.328 281.664 272.425 282.1 272.135 282.439C270.1 285.104 266.854 286.848 263.026 286.848Z" fill="#FFAAB7"/>
<path d="M239.581 286.848C231.78 286.848 226.402 281.616 226.402 274.3C226.402 267.323 231.296 261.945 238.708 261.945C245.976 261.945 250.191 267.226 250.191 273.331C250.191 275.899 249.561 277.498 247.187 277.498H234.348C235.22 279.678 237.303 280.501 240.259 280.501C241.615 280.501 243.166 280.453 245.152 279.387C245.54 279.193 245.782 279.29 246.024 279.678L248.253 282.778C248.447 283.069 248.495 283.457 248.011 283.893C246.024 285.928 242.972 286.848 239.581 286.848ZM234.203 271.926H242.972C242.487 269.406 240.743 268.583 238.757 268.583C236.674 268.583 234.833 269.503 234.203 271.926Z" fill="#FFAAB7"/>
<path d="M202.328 286.267C201.892 286.267 201.553 285.928 201.553 285.492V263.302C201.553 262.866 201.892 262.527 202.328 262.527H208.723C209.111 262.527 209.45 262.72 209.45 263.35L209.692 266.015C211.049 263.593 213.132 261.945 216.475 261.945C221.368 261.945 225.051 265.627 225.051 271.781V285.492C225.051 285.928 224.663 286.267 224.227 286.267H217.686C217.25 286.267 216.911 285.928 216.911 285.492V273.815C216.911 270.86 215.7 269.406 213.326 269.406C211 269.406 209.692 270.86 209.692 273.815V285.492C209.692 285.928 209.353 286.267 208.917 286.267H202.328Z" fill="#FFAAB7"/>
<path d="M176.267 286.267C175.831 286.267 175.492 285.928 175.492 285.492V263.302C175.492 262.866 175.831 262.527 176.267 262.527H182.663C183.05 262.527 183.389 262.72 183.389 263.35L183.632 266.015C184.988 263.593 187.072 261.945 190.415 261.945C195.308 261.945 198.99 265.627 198.99 271.781V285.492C198.99 285.928 198.602 286.267 198.166 286.267H191.626C191.19 286.267 190.851 285.928 190.851 285.492V273.815C190.851 270.86 189.639 269.406 187.265 269.406C184.94 269.406 183.632 270.86 183.632 273.815V285.492C183.632 285.928 183.293 286.267 182.856 286.267H176.267Z" fill="#FFAAB7"/>
<path d="M161.572 286.848C154.304 286.848 149.023 281.373 149.023 274.397C149.023 267.42 154.304 261.945 161.572 261.945C168.791 261.945 174.072 267.42 174.072 274.397C174.072 281.373 168.791 286.848 161.572 286.848ZM156.824 274.397C156.824 277.546 158.956 279.387 161.572 279.387C164.14 279.387 166.271 277.546 166.271 274.397C166.271 271.248 164.14 269.406 161.572 269.406C158.956 269.406 156.824 271.248 156.824 274.397Z" fill="#FFAAB7"/>
<path d="M137.587 286.897C128.043 286.897 120 279.484 120 269.455C120 259.426 128.043 251.965 137.587 251.965C142.48 251.965 146.647 253.951 149.651 257.1C149.99 257.44 149.796 257.779 149.554 258.069L145.242 262.672C145 263.011 144.564 263.011 144.273 262.769C142.48 261.219 140.252 260.25 137.587 260.25C132.451 260.25 128.527 264.126 128.527 269.455C128.527 274.784 132.451 278.612 137.587 278.612C140.252 278.612 142.48 277.643 144.273 276.093C144.564 275.85 145 275.85 145.29 276.189L149.554 280.792C149.796 281.034 149.99 281.374 149.651 281.713C146.647 284.91 142.48 286.897 137.587 286.897Z" fill="#FFAAB7"/>
<path d="M252.534 255.496C251.953 255.496 251.614 255.206 251.904 254.624L255.393 246.291L246.187 223.374C245.993 222.841 246.284 222.551 246.817 222.551H253.551C253.939 222.551 254.327 222.745 254.472 223.132L259.317 236.795L264.21 223.132C264.356 222.745 264.743 222.551 265.131 222.551H271.865C272.398 222.551 272.64 222.841 272.447 223.374L259.898 254.915C259.753 255.302 259.365 255.496 258.978 255.496H252.534Z" fill="#FFAAB7"/>
<path d="M224.297 246.29C223.861 246.29 223.521 245.951 223.521 245.515V223.325C223.521 222.889 223.861 222.55 224.297 222.55H230.692C231.08 222.55 231.419 222.744 231.419 223.374L231.661 226.038C233.018 223.616 235.101 221.969 238.444 221.969C243.337 221.969 247.019 225.651 247.019 231.804V245.515C247.019 245.951 246.632 246.29 246.196 246.29H239.655C239.219 246.29 238.88 245.951 238.88 245.515V233.839C238.88 230.883 237.669 229.43 235.295 229.43C232.969 229.43 231.661 230.883 231.661 233.839V245.515C231.661 245.951 231.322 246.29 230.886 246.29H224.297Z" fill="#FFAAB7"/>
<path d="M198.236 246.29C197.8 246.29 197.461 245.951 197.461 245.515V223.325C197.461 222.889 197.8 222.55 198.236 222.55H204.631C205.019 222.55 205.358 222.744 205.358 223.374L205.6 226.038C206.957 223.616 209.04 221.969 212.383 221.969C217.277 221.969 220.959 225.651 220.959 231.804V245.515C220.959 245.951 220.571 246.29 220.135 246.29H213.595C213.158 246.29 212.819 245.951 212.819 245.515V233.839C212.819 230.883 211.608 229.43 209.234 229.43C206.909 229.43 205.6 230.883 205.6 233.839V245.515C205.6 245.951 205.261 246.29 204.825 246.29H198.236Z" fill="#FFAAB7"/>
<path d="M179.927 246.872C175.034 246.872 171.4 243.19 171.4 237.037V223.326C171.4 222.89 171.74 222.551 172.176 222.551H178.765C179.201 222.551 179.54 222.89 179.54 223.326V235.002C179.54 237.958 180.751 239.411 183.125 239.411C185.402 239.411 186.759 237.958 186.759 235.002V223.326C186.759 222.89 187.098 222.551 187.534 222.551H194.075C194.511 222.551 194.898 222.89 194.898 223.326V245.516C194.898 245.952 194.511 246.291 194.075 246.291H187.728C187.292 246.291 187.001 246.097 186.953 245.467L186.759 242.803C185.402 245.225 183.27 246.872 179.927 246.872Z" fill="#FFAAB7"/>
<path d="M146.172 246.291C145.736 246.291 145.445 245.952 145.445 245.516V213.152C145.445 212.716 145.736 212.377 146.172 212.377H158.333C164.244 212.377 167.732 216.253 167.732 221.098C167.732 224.828 165.503 227.106 163.517 228.123C166.618 228.995 170.009 231.563 170.009 236.602C170.009 242.367 166.036 246.291 157.8 246.291H146.172ZM153.73 238.927H157.267C159.689 238.927 161.434 237.91 161.434 235.39C161.434 232.774 159.689 231.95 157.267 231.95H153.73V238.927ZM153.73 225.507H156.492C158.575 225.507 159.835 224.732 159.835 222.551C159.835 220.42 158.575 219.741 156.492 219.741H153.73V225.507Z" fill="#FFAAB7"/>
<path d="M185.158 147.404C185.066 147.221 184.974 147.037 184.883 146.854C180.842 139.235 178.638 131.157 178.179 122.529C177.811 117.021 178.087 111.513 179.832 106.189C180.658 103.619 181.944 101.324 183.964 99.4886C187.454 96.2759 191.77 96.2759 195.168 99.6722C198.106 102.518 199.851 106.098 201.229 109.861C203.157 115.277 204.167 120.968 204.718 126.751C205.177 131.341 205.086 135.838 204.718 140.428C204.718 140.703 204.718 140.979 204.718 141.254C207.657 141.254 210.596 141.254 213.442 141.254C213.351 138.225 213.075 135.104 213.167 132.075C213.351 124.089 214.453 116.287 217.299 108.851C218.585 105.455 220.33 102.242 222.993 99.764C226.299 96.6431 230.339 96.3677 233.554 99.0297C234.564 99.8558 235.39 100.866 236.125 101.967C238.053 104.721 238.972 107.842 239.431 111.054C240.9 120.142 239.982 129.138 237.043 137.858C235.941 141.162 234.472 144.283 233.186 147.588C234.472 148.598 235.941 149.791 237.319 151.076C243.471 156.859 247.328 163.835 248.43 172.188C249.808 182.377 247.237 191.556 240.441 199.359C235.574 205.05 229.329 208.63 222.166 210.558C212.065 213.22 202.055 212.944 192.229 209.364C183.321 206.151 176.342 200.369 172.393 191.648C166.7 178.889 168.077 166.681 176.526 155.482C178.73 152.545 181.393 150.066 184.423 147.955C184.883 147.68 184.974 147.588 185.158 147.404Z" fill="#FFAAB7"/>
</svg>
