<svg width="418" height="384" viewBox="0 0 418 384" fill="none" xmlns="http://www.w3.org/2000/svg">
<rect width="418" height="384" fill="white"/>
<g clip-path="url(#clip0_16689_16655)">
<path fill-rule="evenodd" clip-rule="evenodd" d="M321.129 182.138H310.568C308.795 182.265 308.3 182.794 308.3 185.388V192.539H321.129V182.138ZM326.752 176.412V207.593H321.129V198.63H308.3V207.593H302.677V183.148C302.677 178.829 304.128 176.412 308.3 176.412H326.752ZM297.055 183.143V200.017C297.055 205.389 294.551 207.587 291.431 207.587H273.694V176.406H291.431C296.221 176.406 297.055 180.077 297.055 183.143ZM291.364 185.019C291.364 183.311 290.5 182.132 288.988 182.132H279.318V201.615L288.988 201.614C291.191 201.479 291.364 199.887 291.364 198.624V185.019ZM159.068 176.406H164.692V188.696H177.272V176.406H182.896V207.586H177.272V194.862H164.692V207.586H159.068V176.406ZM192.533 176.406L199.583 189.153L206.547 176.406H213.375L202.391 196.341V207.587H196.767V196.339L185.707 176.406H192.533ZM244.94 176.406H263.061C265.643 176.406 268.144 176.843 268.071 183.143V207.587H262.448V185.382C262.448 182.697 262.18 182.132 260.433 182.132H250.565V207.587H244.94V176.406ZM337.999 176.412V207.593H332.375V176.412H337.999ZM216.187 207.587H234.307C237.909 207.587 239.391 206.331 239.318 200.07V176.406H233.694V198.665C233.694 201.334 233.427 201.657 231.679 201.657H221.811L221.811 176.406H216.187V207.587Z" fill="#003984"/>
<path fill-rule="evenodd" clip-rule="evenodd" d="M119.377 196.622C119.873 199.711 118.53 202.276 117.414 204.767C116.174 207.083 114.129 209.075 111.67 208.777C106.152 208.677 100.76 207.656 95.7586 205.837C95.5316 205.763 95.3045 205.588 95.1802 205.339C95.0768 204.99 95.2219 204.666 95.4281 204.443C99.9951 199.984 105.429 197.917 110.802 195.749C112.806 195.052 114.935 194.305 117.187 194.654C118.116 194.804 119.046 195.576 119.377 196.622ZM138.201 183.422C140.763 185.962 143.078 189.425 142.292 193.609C141.011 199.786 135.433 203.074 130.99 205.166C128.572 206.138 126.134 207.135 123.489 207.433C123.324 207.408 123.055 207.458 123.013 207.159L123.075 206.811C126.836 201.704 129.687 195.976 132.188 190.172C133.345 187.557 134.42 184.867 135.412 182.227C135.556 182.027 135.701 181.928 135.867 181.853C136.796 181.952 137.457 182.824 138.201 183.422ZM102.143 176.846L102.06 177.219C96.6259 184.666 93.0512 193.309 89.6626 201.902C89.0015 202.65 88.3606 201.653 87.7614 201.329C84.7442 198.938 82.0167 195.077 82.802 190.495C84.0623 184.517 89.1661 181.329 93.4234 179.163C95.944 178.017 98.5688 177.096 101.337 176.572C101.627 176.572 101.998 176.522 102.143 176.846ZM129.109 178.041C129.419 178.241 129.791 178.315 129.977 178.688C130.143 179.112 129.812 179.386 129.626 179.66C125.349 183.695 120.452 185.937 115.451 187.905C112.909 188.652 110.346 189.997 107.516 189.25C106.854 189.051 106.256 188.528 105.884 187.755C105.181 185.414 106.131 182.973 106.958 180.931C108.053 178.365 109.996 175.351 112.682 175.302C118.467 175.252 123.922 176.298 129.109 178.041ZM136.259 178.241C140.64 181.13 145.599 186.211 145.083 192.986C144.483 199.262 139.627 203.646 135.288 206.287C122.621 213.585 104.83 213.808 91.7499 207.432C87.3274 205.216 82.368 201.405 80.5078 195.676C79.0822 190.968 80.8175 186.062 83.7318 182.799C89.8272 176.124 97.5967 173.833 105.594 172.512C114.273 171.241 123.406 172.362 131.175 175.576C132.911 176.348 134.626 177.195 136.259 178.241Z" fill="#003984"/>
</g>
<defs>
<clipPath id="clip0_16689_16655">
<rect width="258" height="40" fill="white" transform="translate(80 172)"/>
</clipPath>
</defs>
</svg>
