<svg width="418" height="384" viewBox="0 0 418 384" fill="none" xmlns="http://www.w3.org/2000/svg">
<rect width="418" height="384" fill="black"/>
<path d="M89.7991 213.776C86.5731 213.776 84.1334 212.869 82.48 211.054C80.8267 209.199 80 206.558 80 203.13V200.711H86.2908V203.614C86.2908 206.356 87.4401 207.727 89.7386 207.727C90.8678 207.727 91.7145 207.405 92.2792 206.76C92.8841 206.074 93.1864 204.985 93.1864 203.493C93.1864 201.719 92.7832 200.166 91.9767 198.836C91.1702 197.465 89.6781 195.831 87.5006 193.936C84.7584 191.517 82.843 189.339 81.7542 187.403C80.6654 185.427 80.121 183.209 80.121 180.75C80.121 177.403 80.9678 174.822 82.6615 173.007C84.3552 171.152 86.815 170.225 90.0411 170.225C93.2268 170.225 95.6262 171.152 97.2391 173.007C98.8925 174.822 99.7192 177.443 99.7192 180.871V182.625H93.4284V180.447C93.4284 178.995 93.1461 177.947 92.5816 177.302C92.017 176.616 91.1903 176.273 90.1016 176.273C87.8837 176.273 86.7747 177.624 86.7747 180.326C86.7747 181.859 87.178 183.29 87.9845 184.621C88.8313 185.952 90.3435 187.565 92.5211 189.46C95.3035 191.88 97.219 194.077 98.2675 196.053C99.3159 198.029 99.8402 200.348 99.8402 203.009C99.8402 206.477 98.9732 209.139 97.2391 210.994C95.5455 212.849 93.0654 213.776 89.7991 213.776ZM108.857 176.878H101.901V170.83H122.467V176.878H115.511V213.171H108.857V176.878ZM125.689 170.83H132.342V213.171H125.689V170.83ZM137.326 170.83H143.979V207.123H154.928V213.171H137.326V170.83ZM158.118 170.83H164.772V207.123H175.721V213.171H158.118V170.83ZM184.779 191.517L177.46 170.83H184.476L188.953 184.5H189.073L193.671 170.83H199.961L192.642 191.517L200.324 213.171H193.308L188.469 198.412H188.348L183.387 213.171H177.097L184.779 191.517ZM209.352 191.517L202.034 170.83H209.049L213.526 184.5H213.647L218.244 170.83H224.534L217.216 191.517L224.897 213.171H217.881L213.042 198.412H212.921L207.961 213.171H201.671L209.352 191.517ZM233.925 191.517L226.607 170.83H233.623L238.099 184.5H238.22L242.818 170.83H249.108L241.789 191.517L249.471 213.171H242.455L237.615 198.412H237.494L232.534 213.171H226.244L233.925 191.517ZM252.927 206.76H259.339V213.171H252.927V206.76ZM264.328 170.83H270.981V207.123H281.93V213.171H264.328V170.83ZM285.121 170.83H291.774V213.171H285.121V170.83ZM295.003 170.83H301.718L306.072 203.675H306.193L310.549 170.83H316.658L310.246 213.171H301.415L295.003 170.83ZM319.854 170.83H338V176.878H326.508V188.069H335.641V194.118H326.508V207.123H338V213.171H319.854V170.83Z" fill="white"/>
</svg>
