<svg width="675" height="472" viewBox="0 0 675 472" fill="none" xmlns="http://www.w3.org/2000/svg">
<g clip-path="url(#clip0_16690_16696)">
<path d="M523 90H187V383H523V90Z" fill="white"/>
</g>
<path d="M336.914 0C336.914 0 126.185 0.000195503 73.2943 13.7435C44.975 21.6562 21.6562 44.9751 13.7435 73.7109C0.000313123 126.601 0 236.133 0 236.133C0 236.133 0.000313123 346.08 13.7435 398.138C21.6562 426.873 44.5585 449.776 73.2943 457.689C126.601 471.848 336.914 471.849 336.914 471.849C336.914 471.849 548.061 471.849 600.95 458.105C629.686 450.193 652.588 427.707 660.085 398.555C674.244 346.08 674.245 236.549 674.245 236.549C674.245 236.549 674.661 126.601 660.085 73.7109C652.588 44.9751 629.686 22.0732 600.95 14.5768C548.061 0.000665983 336.914 0 336.914 0ZM269.863 134.935L445.195 236.133L269.863 336.914V134.935Z" fill="#FF0033"/>
<defs>
<clipPath id="clip0_16690_16696">
<rect width="336" height="293" fill="white" transform="translate(187 90)"/>
</clipPath>
</defs>
</svg>
